<svg width="75" height="87" viewBox="0 0 75 87" fill="none" xmlns="http://www.w3.org/2000/svg">
<g clip-path="url(#clip0_1_70)">
<path fill-rule="evenodd" clip-rule="evenodd" d="M15.4177 48.4557C15.4177 69.7431 17.0976 87 39.6456 87C62.1935 87 63.8734 69.7431 63.8734 48.4557" fill="#2E7758"/>
<path fill-rule="evenodd" clip-rule="evenodd" d="M46.3534 35.1742C45.5269 36.6032 44.79 38.0608 44.139 39.5403C44.116 36.4933 44.2845 33.424 44.7446 30.3128C45.531 24.9833 46.7322 19.6816 47.8609 14.3884C48.6721 10.5844 48.6208 3.75184 51.6994 0.720495C52.5436 0.0653705 52.7468 1.35061 52.7468 1.90838C52.7575 2.02628 52.7445 -0.368253 51.9251 0.0488473C47.0544 2.5644 45.4763 10.4741 43.9169 14.4344C41.6418 20.2148 39.7061 26.1239 38.909 32.1379C38.7076 33.6572 38.598 35.176 38.5727 36.6921C38.4071 36.2866 38.2516 35.878 38.0796 35.4738C35.2684 28.8806 31.4747 22.4472 26.7431 16.514C25.5784 15.0542 10.9342 0.64949 9.78779 2.85423C9.9009 3.17442 10.1377 3.44013 10.4988 3.65136C10.52 3.67548 10.5206 3.66208 10.5083 3.62636C11.3683 5.01565 13.8137 7.16144 14.5754 8.3788C16.4923 11.4423 17.9821 14.6934 19.4961 17.8824C22.6948 24.6216 25.6621 31.4287 28.5386 38.2502C29.2084 39.8391 29.9065 41.4191 30.6187 42.9941C23.2769 32.4045 13.4826 22.7907 0 17.2871C4.60494 19.6298 7.62405 24.0375 10.7339 27.4123C14.4846 31.4828 18.4351 35.4439 22.1929 39.51C26.6253 44.3066 31.8405 49.3578 36.1038 54.6658C40.2333 63.3356 44.2462 72.0148 46.7234 81.1285C45.7084 77.9797 46.6438 73.6283 46.4701 70.3236C46.3322 67.6933 46.0247 65.0844 45.6035 62.4804C46.1243 63.6549 46.5732 64.8303 46.7764 65.9235C46.5908 64.0899 46.377 62.2678 46.1472 60.4552C46.7369 58.7582 47.316 57.1747 47.7072 55.8702C49.7118 49.1787 52.0988 42.6025 55.3495 36.1928C58.3574 30.2636 61.8077 24.4099 65.5673 18.7349C67.321 16.0889 69.0989 13.4528 70.8656 10.8122C72.022 9.0835 73.123 6.31563 74.733 4.65928C64.3261 14.174 52.956 23.7575 46.3534 35.1742Z" fill="#2E7758"/>
</g>
<defs>
<clipPath id="clip0_1_70">
<rect width="75" height="87" fill="white"/>
</clipPath>
</defs>
</svg>
